<svg width="25" height="24" viewBox="0 0 25 24" fill="none" xmlns="http://www.w3.org/2000/svg">
<path fill-rule="evenodd" clip-rule="evenodd" d="M3.48547 10C2.93319 10 2.48547 10.4477 2.48547 11V17C2.48547 18.6569 3.82862 20 5.48547 20H19.4855C21.1423 20 22.4855 18.6569 22.4855 17V11C22.4855 10.4477 22.0378 10 21.4855 10H3.48547ZM5.48547 14C4.93319 14 4.48547 14.4477 4.48547 15C4.48547 15.5523 4.93319 16 5.48547 16H11.4855C12.0378 16 12.4855 15.5523 12.4855 15C12.4855 14.4477 12.0378 14 11.4855 14H5.48547Z" fill="#1C1C1C"/>
<path d="M2.48547 7C2.48547 5.34315 3.82862 4 5.48547 4H19.4855C21.1423 4 22.4855 5.34315 22.4855 7C22.4855 7.55228 22.0378 8 21.4855 8H3.48547C2.93319 8 2.48547 7.55228 2.48547 7Z" fill="#1C1C1C"/>
</svg>
