<svg width="32" height="33" viewBox="0 0 32 33" fill="none" xmlns="http://www.w3.org/2000/svg">
<path d="M27 7.5V15.5H20V7.5H27ZM5 26.5C5 26.7652 5.10536 27.0196 5.29289 27.2071C5.48043 27.3946 5.73478 27.5 6 27.5H11C11.2652 27.5 11.5196 27.3946 11.7071 27.2071C11.8946 27.0196 12 26.7652 12 26.5V15.5H5V26.5Z" fill="#1C1C1C" fill-opacity="0.1"/>
<path d="M27 6.5H5C4.73478 6.5 4.48043 6.60536 4.29289 6.79289C4.10536 6.98043 4 7.23478 4 7.5V26.5C4 27.0304 4.21071 27.5391 4.58579 27.9142C4.96086 28.2893 5.46957 28.5 6 28.5H11C11.5304 28.5 12.0391 28.2893 12.4142 27.9142C12.7893 27.5391 13 27.0304 13 26.5V20.5H19V22.5C19 23.0304 19.2107 23.5391 19.5858 23.9142C19.9609 24.2893 20.4696 24.5 21 24.5H26C26.5304 24.5 27.0391 24.2893 27.4142 23.9142C27.7893 23.5391 28 23.0304 28 22.5V7.5C28 7.23478 27.8946 6.98043 27.7071 6.79289C27.5196 6.60536 27.2652 6.5 27 6.5ZM26 14.5H21V8.5H26V14.5ZM11 8.5V14.5H6V8.5H11ZM11 26.5H6V16.5H11V26.5ZM13 18.5V8.5H19V18.5H13ZM21 22.5V16.5H26V22.5H21Z" fill="white"/>
</svg>
