<svg width="25" height="24" viewBox="0 0 25 24" fill="none" xmlns="http://www.w3.org/2000/svg">
<path fill-rule="evenodd" clip-rule="evenodd" d="M7.48535 5C7.48535 3.34315 8.8285 2 10.4854 2H15.7427C16.5384 2 17.3014 2.31607 17.864 2.87868L20.6067 5.62132C21.1693 6.18393 21.4854 6.94699 21.4854 7.74264V15C21.4854 16.6569 20.1422 18 18.4854 18H17.4854V19C17.4854 20.6569 16.1422 22 14.4854 22H6.48535C4.8285 22 3.48535 20.6569 3.48535 19V9C3.48535 7.34315 4.8285 6 6.48535 6H7.48535V5ZM7.48535 15V8H6.48535C5.93307 8 5.48535 8.44772 5.48535 9V19C5.48535 19.5523 5.93307 20 6.48535 20H14.4854C15.0376 20 15.4854 19.5523 15.4854 19V18H10.4854C8.8285 18 7.48535 16.6569 7.48535 15ZM15.4854 4.20712V6.00001C15.4854 7.10458 16.3808 8.00001 17.4854 8.00001H19.2782C19.7237 8.00001 19.9468 7.46144 19.6318 7.14646L16.3389 3.85356C16.0239 3.53858 15.4854 3.76167 15.4854 4.20712Z" fill="#1C1C1C"/>
</svg>
