<svg width="33" height="33" viewBox="0 0 33 33" fill="none" xmlns="http://www.w3.org/2000/svg">
<path d="M20.5 16.5C20.5 17.2911 20.2654 18.0645 19.8259 18.7223C19.3864 19.3801 18.7616 19.8928 18.0307 20.1955C17.2998 20.4983 16.4956 20.5775 15.7196 20.4231C14.9437 20.2688 14.231 19.8878 13.6716 19.3284C13.1122 18.769 12.7312 18.0563 12.5769 17.2804C12.4225 16.5044 12.5017 15.7002 12.8045 14.9693C13.1072 14.2384 13.6199 13.6136 14.2777 13.1741C14.9355 12.7346 15.7089 12.5 16.5 12.5C17.5609 12.5 18.5783 12.9214 19.3284 13.6716C20.0786 14.4217 20.5 15.4391 20.5 16.5ZM25.5 8.5C25.7117 9.74915 26.3067 10.9015 27.2026 11.7974C28.0985 12.6933 29.2509 13.2883 30.5 13.5V8.5H25.5ZM25.5 24.5H30.5V19.5C29.2509 19.7117 28.0985 20.3067 27.2026 21.2026C26.3067 22.0985 25.7117 23.2509 25.5 24.5ZM2.5 19.5V24.5H7.5C7.28828 23.2509 6.69326 22.0985 5.79738 21.2026C4.9015 20.3067 3.74915 19.7117 2.5 19.5ZM2.5 13.5C3.74915 13.2883 4.9015 12.6933 5.79738 11.7974C6.69326 10.9015 7.28828 9.74915 7.5 8.5H2.5V13.5Z" fill="#1C1C1C" fill-opacity="0.1"/>
<path d="M16.5 11.5C15.5111 11.5 14.5444 11.7932 13.7221 12.3427C12.8999 12.8921 12.259 13.673 11.8806 14.5866C11.5022 15.5002 11.4031 16.5055 11.5961 17.4755C11.789 18.4454 12.2652 19.3363 12.9645 20.0355C13.6637 20.7348 14.5546 21.211 15.5245 21.4039C16.4945 21.5969 17.4998 21.4978 18.4134 21.1194C19.327 20.741 20.1079 20.1001 20.6573 19.2779C21.2068 18.4556 21.5 17.4889 21.5 16.5C21.5 15.1739 20.9732 13.9021 20.0355 12.9645C19.0979 12.0268 17.8261 11.5 16.5 11.5ZM16.5 19.5C15.9067 19.5 15.3266 19.3241 14.8333 18.9944C14.3399 18.6648 13.9554 18.1962 13.7284 17.6481C13.5013 17.0999 13.4419 16.4967 13.5576 15.9147C13.6734 15.3328 13.9591 14.7982 14.3787 14.3787C14.7982 13.9591 15.3328 13.6734 15.9147 13.5576C16.4967 13.4419 17.0999 13.5013 17.6481 13.7284C18.1962 13.9554 18.6648 14.3399 18.9944 14.8333C19.3241 15.3266 19.5 15.9067 19.5 16.5C19.5 17.2956 19.1839 18.0587 18.6213 18.6213C18.0587 19.1839 17.2956 19.5 16.5 19.5ZM30.5 7.5H2.5C2.23478 7.5 1.98043 7.60536 1.79289 7.79289C1.60536 7.98043 1.5 8.23478 1.5 8.5V24.5C1.5 24.7652 1.60536 25.0196 1.79289 25.2071C1.98043 25.3946 2.23478 25.5 2.5 25.5H30.5C30.7652 25.5 31.0196 25.3946 31.2071 25.2071C31.3946 25.0196 31.5 24.7652 31.5 24.5V8.5C31.5 8.23478 31.3946 7.98043 31.2071 7.79289C31.0196 7.60536 30.7652 7.5 30.5 7.5ZM3.5 9.5H6.17125C5.65549 10.6995 4.69945 11.6555 3.5 12.1713V9.5ZM3.5 23.5V20.8288C4.69945 21.3445 5.65549 22.3005 6.17125 23.5H3.5ZM29.5 23.5H26.8288C27.3445 22.3005 28.3005 21.3445 29.5 20.8288V23.5ZM29.5 18.7062C28.3645 19.042 27.3311 19.6565 26.4938 20.4938C25.6565 21.3311 25.042 22.3645 24.7062 23.5H8.29375C7.95801 22.3645 7.34351 21.3311 6.50623 20.4938C5.66895 19.6565 4.6355 19.042 3.5 18.7062V14.2937C4.6355 13.958 5.66895 13.3435 6.50623 12.5062C7.34351 11.6689 7.95801 10.6355 8.29375 9.5H24.7062C25.042 10.6355 25.6565 11.6689 26.4938 12.5062C27.3311 13.3435 28.3645 13.958 29.5 14.2937V18.7062ZM29.5 12.1713C28.3005 11.6555 27.3445 10.6995 26.8288 9.5H29.5V12.1713Z" fill="white"/>
</svg>
