<svg width="32" height="33" viewBox="0 0 32 33" fill="none" xmlns="http://www.w3.org/2000/svg">
<path d="M21 18.5C21 19.4889 20.7068 20.4556 20.1574 21.2779C19.6079 22.1001 18.8271 22.741 17.9134 23.1194C16.9998 23.4978 15.9945 23.5969 15.0246 23.4039C14.0546 23.211 13.1637 22.7348 12.4645 22.0355C11.7652 21.3363 11.289 20.4454 11.0961 19.4755C10.9031 18.5055 11.0022 17.5002 11.3806 16.5866C11.759 15.673 12.3999 14.8921 13.2222 14.3427C14.0444 13.7932 15.0111 13.5 16 13.5C17.3261 13.5 18.5979 14.0268 19.5355 14.9645C20.4732 15.9021 21 17.1739 21 18.5ZM8 7.5C7.20888 7.5 6.43552 7.7346 5.77772 8.17412C5.11992 8.61365 4.60723 9.23836 4.30448 9.96927C4.00173 10.7002 3.92252 11.5044 4.07686 12.2804C4.2312 13.0563 4.61216 13.769 5.17157 14.3284C5.73098 14.8878 6.44372 15.2688 7.21964 15.4231C7.99556 15.5775 8.79983 15.4983 9.53074 15.1955C10.2616 14.8928 10.8864 14.3801 11.3259 13.7223C11.7654 13.0645 12 12.2911 12 11.5C12 10.4391 11.5786 9.42172 10.8284 8.67157C10.0783 7.92143 9.06087 7.5 8 7.5ZM24 7.5C23.2089 7.5 22.4355 7.7346 21.7777 8.17412C21.1199 8.61365 20.6072 9.23836 20.3045 9.96927C20.0017 10.7002 19.9225 11.5044 20.0769 12.2804C20.2312 13.0563 20.6122 13.769 21.1716 14.3284C21.731 14.8878 22.4437 15.2688 23.2196 15.4231C23.9956 15.5775 24.7998 15.4983 25.5307 15.1955C26.2616 14.8928 26.8864 14.3801 27.3259 13.7223C27.7654 13.0645 28 12.2911 28 11.5C28 10.4391 27.5786 9.42172 26.8284 8.67157C26.0783 7.92143 25.0609 7.5 24 7.5Z" fill="#1C1C1C" fill-opacity="0.1"/>
<path d="M30.6 19.3C30.495 19.3788 30.3754 19.4361 30.2482 19.4687C30.121 19.5013 29.9886 19.5085 29.8586 19.49C29.7286 19.4714 29.6035 19.4274 29.4905 19.3605C29.3775 19.2936 29.2788 19.2051 29.2 19.1C28.5973 18.2898 27.8127 17.6325 26.9096 17.1809C26.0064 16.7293 25.0098 16.4961 24 16.5C23.7348 16.5 23.4804 16.3946 23.2929 16.2071C23.1054 16.0196 23 15.7652 23 15.5C23 15.2348 23.1054 14.9804 23.2929 14.7929C23.4804 14.6054 23.7348 14.5 24 14.5C24.5611 14.5 25.1109 14.3426 25.5871 14.0457C26.0632 13.7488 26.4465 13.3244 26.6935 12.8206C26.9405 12.3167 27.0412 11.7538 26.9843 11.1956C26.9273 10.6374 26.715 10.1063 26.3714 9.66278C26.0278 9.21922 25.5666 8.88091 25.0404 8.68628C24.5141 8.49164 23.9439 8.4485 23.3943 8.56173C22.8448 8.67497 22.338 8.94005 21.9315 9.32687C21.5251 9.71368 21.2353 10.2067 21.095 10.75C21.0622 10.8772 21.0046 10.9967 20.9256 11.1017C20.8466 11.2067 20.7477 11.295 20.6345 11.3618C20.5213 11.4285 20.3961 11.4723 20.266 11.4907C20.1359 11.509 20.0035 11.5016 19.8763 11.4688C19.749 11.4359 19.6295 11.3784 19.5246 11.2993C19.4196 11.2203 19.3312 11.1214 19.2645 11.0082C19.1977 10.8951 19.1539 10.7699 19.1356 10.6398C19.1172 10.5097 19.1247 10.3772 19.1575 10.25C19.3522 9.49665 19.72 8.79913 20.2318 8.21294C20.7435 7.62676 21.3849 7.1681 22.1051 6.87344C22.8252 6.57879 23.6042 6.45628 24.3801 6.51567C25.1559 6.57505 25.9072 6.81469 26.5741 7.21552C27.241 7.61635 27.8052 8.16729 28.2217 8.82453C28.6383 9.48176 28.8957 10.2271 28.9734 11.0014C29.0512 11.7756 28.9472 12.5572 28.6697 13.2842C28.3922 14.0111 27.9489 14.6633 27.375 15.1888C28.7348 15.7775 29.9168 16.7118 30.8038 17.8988C30.8826 18.0041 30.9398 18.1239 30.9722 18.2514C31.0046 18.3789 31.0115 18.5115 30.9926 18.6417C30.9737 18.7718 30.9293 18.897 30.8619 19.0099C30.7945 19.1229 30.7055 19.2215 30.6 19.3ZM23.865 27C23.9348 27.1138 23.9811 27.2405 24.0012 27.3725C24.0213 27.5045 24.0147 27.6393 23.9819 27.7687C23.949 27.8981 23.8906 28.0197 23.81 28.1262C23.7295 28.2327 23.6284 28.3219 23.5127 28.3887C23.3971 28.4555 23.2693 28.4985 23.1368 28.5151C23.0042 28.5316 22.8698 28.5215 22.7412 28.4853C22.6127 28.4491 22.4927 28.3875 22.3884 28.3041C22.2841 28.2208 22.1975 28.1174 22.1338 28C21.5037 26.9336 20.6066 26.0499 19.5309 25.436C18.4552 24.8221 17.238 24.4992 15.9994 24.4992C14.7608 24.4992 13.5436 24.8221 12.4679 25.436C11.3922 26.0499 10.495 26.9336 9.86501 28C9.8025 28.1195 9.71646 28.2251 9.61206 28.3105C9.50767 28.3959 9.38708 28.4593 9.25755 28.4969C9.12802 28.5345 8.99223 28.5454 8.85835 28.5292C8.72446 28.5129 8.59525 28.4697 8.47848 28.4022C8.36172 28.3348 8.25981 28.2443 8.1789 28.1364C8.09798 28.0285 8.03973 27.9054 8.00764 27.7744C7.97556 27.6434 7.9703 27.5073 7.99219 27.3742C8.01408 27.2411 8.06266 27.1138 8.13501 27C9.10451 25.3342 10.5828 24.0233 12.3525 23.26C11.3567 22.4976 10.6248 21.4422 10.2598 20.2423C9.89473 19.0424 9.91489 17.7582 10.3174 16.5704C10.7199 15.3825 11.4846 14.3507 12.5038 13.6198C13.5231 12.889 14.7458 12.496 16 12.496C17.2542 12.496 18.4769 12.889 19.4962 13.6198C20.5155 14.3507 21.2801 15.3825 21.6826 16.5704C22.0851 17.7582 22.1053 19.0424 21.7403 20.2423C21.3752 21.4422 20.6434 22.4976 19.6475 23.26C21.4173 24.0233 22.8955 25.3342 23.865 27ZM16 22.5C16.7911 22.5 17.5645 22.2654 18.2223 21.8259C18.8801 21.3864 19.3928 20.7616 19.6955 20.0307C19.9983 19.2998 20.0775 18.4956 19.9232 17.7196C19.7688 16.9437 19.3878 16.231 18.8284 15.6716C18.269 15.1122 17.5563 14.7312 16.7804 14.5769C16.0045 14.4225 15.2002 14.5017 14.4693 14.8045C13.7384 15.1072 13.1137 15.6199 12.6741 16.2777C12.2346 16.9355 12 17.7089 12 18.5C12 19.5609 12.4214 20.5783 13.1716 21.3284C13.9217 22.0786 14.9391 22.5 16 22.5ZM9.00001 15.5C9.00001 15.2348 8.89466 14.9804 8.70712 14.7929C8.51958 14.6054 8.26523 14.5 8.00001 14.5C7.43892 14.5 6.88909 14.3426 6.41297 14.0457C5.93686 13.7488 5.55353 13.3244 5.30655 12.8206C5.05957 12.3167 4.95882 11.7538 5.01576 11.1956C5.0727 10.6374 5.28503 10.1063 5.62865 9.66278C5.97226 9.21922 6.43339 8.88091 6.95964 8.68628C7.48589 8.49164 8.05618 8.4485 8.60572 8.56173C9.15527 8.67497 9.66204 8.94005 10.0685 9.32687C10.4749 9.71368 10.7647 10.2067 10.905 10.75C10.9713 11.0069 11.137 11.227 11.3655 11.3618C11.5941 11.4966 11.8668 11.5351 12.1238 11.4688C12.3807 11.4025 12.6008 11.2368 12.7355 11.0082C12.8703 10.7797 12.9088 10.5069 12.8425 10.25C12.6478 9.49665 12.28 8.79913 11.7683 8.21294C11.2566 7.62676 10.6151 7.1681 9.89495 6.87344C9.17479 6.57879 8.3958 6.45628 7.61996 6.51567C6.84412 6.57505 6.09285 6.81469 5.42592 7.21552C4.75899 7.61635 4.19482 8.16729 3.77829 8.82453C3.36176 9.48176 3.10437 10.2271 3.0266 11.0014C2.94883 11.7756 3.05283 12.5572 3.33032 13.2842C3.60781 14.0111 4.05113 14.6633 4.62501 15.1888C3.26662 15.7781 2.08591 16.7123 1.20001 17.8988C1.04072 18.1109 0.972231 18.3777 1.00962 18.6404C1.04701 18.903 1.18721 19.1401 1.39939 19.2994C1.61156 19.4587 1.87832 19.5272 2.14099 19.4898C2.40366 19.4524 2.64072 19.3122 2.80001 19.1C3.40275 18.2898 4.18728 17.6325 5.09046 17.1809C5.99364 16.7293 6.99023 16.4961 8.00001 16.5C8.26523 16.5 8.51958 16.3946 8.70712 16.2071C8.89466 16.0196 9.00001 15.7652 9.00001 15.5Z" fill="white"/>
</svg>
