<svg width="32" height="33" viewBox="0 0 32 33" fill="none" xmlns="http://www.w3.org/2000/svg">
<path d="M26 9.5V23.5H6V9.5H26Z" fill="#1C1C1C" fill-opacity="0.1"/>
<path d="M11 18.5V16.5C11 16.2348 11.1054 15.9804 11.2929 15.7929C11.4804 15.6054 11.7348 15.5 12 15.5C12.2652 15.5 12.5196 15.6054 12.7071 15.7929C12.8946 15.9804 13 16.2348 13 16.5V18.5C13 18.7652 12.8946 19.0196 12.7071 19.2071C12.5196 19.3946 12.2652 19.5 12 19.5C11.7348 19.5 11.4804 19.3946 11.2929 19.2071C11.1054 19.0196 11 18.7652 11 18.5ZM16 19.5C16.2652 19.5 16.5196 19.3946 16.7071 19.2071C16.8946 19.0196 17 18.7652 17 18.5V15.5C17 15.2348 16.8946 14.9804 16.7071 14.7929C16.5196 14.6054 16.2652 14.5 16 14.5C15.7348 14.5 15.4804 14.6054 15.2929 14.7929C15.1054 14.9804 15 15.2348 15 15.5V18.5C15 18.7652 15.1054 19.0196 15.2929 19.2071C15.4804 19.3946 15.7348 19.5 16 19.5ZM20 19.5C20.2652 19.5 20.5196 19.3946 20.7071 19.2071C20.8946 19.0196 21 18.7652 21 18.5V14.5C21 14.2348 20.8946 13.9804 20.7071 13.7929C20.5196 13.6054 20.2652 13.5 20 13.5C19.7348 13.5 19.4804 13.6054 19.2929 13.7929C19.1054 13.9804 19 14.2348 19 14.5V18.5C19 18.7652 19.1054 19.0196 19.2929 19.2071C19.4804 19.3946 19.7348 19.5 20 19.5ZM27 10.5V22.5H28C28.2652 22.5 28.5196 22.6054 28.7071 22.7929C28.8946 22.9804 29 23.2348 29 23.5C29 23.7652 28.8946 24.0196 28.7071 24.2071C28.5196 24.3946 28.2652 24.5 28 24.5H17V26.6725C17.6672 26.9084 18.2296 27.3726 18.5876 27.983C18.9457 28.5934 19.0765 29.3107 18.9568 30.0082C18.8371 30.7057 18.4747 31.3385 17.9337 31.7946C17.3926 32.2507 16.7077 32.5009 16 32.5009C15.2923 32.5009 14.6074 32.2507 14.0663 31.7946C13.5253 31.3385 13.1629 30.7057 13.0432 30.0082C12.9235 29.3107 13.0543 28.5934 13.4124 27.983C13.7704 27.3726 14.3328 26.9084 15 26.6725V24.5H4C3.73478 24.5 3.48043 24.3946 3.29289 24.2071C3.10536 24.0196 3 23.7652 3 23.5C3 23.2348 3.10536 22.9804 3.29289 22.7929C3.48043 22.6054 3.73478 22.5 4 22.5H5V10.5C4.46957 10.5 3.96086 10.2893 3.58579 9.91421C3.21071 9.53914 3 9.03043 3 8.5V6.5C3 5.96957 3.21071 5.46086 3.58579 5.08579C3.96086 4.71071 4.46957 4.5 5 4.5H27C27.5304 4.5 28.0391 4.71071 28.4142 5.08579C28.7893 5.46086 29 5.96957 29 6.5V8.5C29 9.03043 28.7893 9.53914 28.4142 9.91421C28.0391 10.2893 27.5304 10.5 27 10.5ZM17 29.5C17 29.3022 16.9414 29.1089 16.8315 28.9444C16.7216 28.78 16.5654 28.6518 16.3827 28.5761C16.2 28.5004 15.9989 28.4806 15.8049 28.5192C15.6109 28.5578 15.4327 28.653 15.2929 28.7929C15.153 28.9327 15.0578 29.1109 15.0192 29.3049C14.9806 29.4989 15.0004 29.7 15.0761 29.8827C15.1518 30.0654 15.28 30.2216 15.4444 30.3315C15.6089 30.4414 15.8022 30.5 16 30.5C16.2652 30.5 16.5196 30.3946 16.7071 30.2071C16.8946 30.0196 17 29.7652 17 29.5ZM5 8.5H27V6.5H5V8.5ZM25 10.5H7V22.5H25V10.5Z" fill="white"/>
</svg>
