<svg width="83" height="66" viewBox="0 0 83 66" fill="none" xmlns="http://www.w3.org/2000/svg">
<path d="M5.09997 65.484L5.09997 51.612L13.056 51.612C19.312 51.612 22.44 48.484 22.44 42.228L22.44 35.7L18.972 35.7C13.532 35.7 9.04397 34.068 5.50797 30.804C1.83597 27.54 -2.68378e-05 23.392 -2.63979e-05 18.36C-2.59223e-05 12.92 1.83597 8.5 5.50797 5.1C9.04397 1.69999 13.532 -6.0577e-06 18.972 -5.58212e-06C24.548 -5.09465e-06 29.104 1.7 32.64 5.1C36.176 8.636 37.944 13.328 37.944 19.176L37.944 42.636C37.944 57.868 30.328 65.484 15.096 65.484L5.09997 65.484ZM49.98 65.484L49.98 51.612L57.936 51.612C64.192 51.612 67.32 48.484 67.32 42.228L67.32 35.7L63.852 35.7C58.412 35.7 53.924 34.068 50.388 30.804C46.716 27.54 44.88 23.392 44.88 18.36C44.88 12.92 46.716 8.5 50.388 5.1C53.924 1.7 58.412 -2.13416e-06 63.852 -1.65858e-06C69.428 -1.17112e-06 73.984 1.7 77.52 5.1C81.056 8.63601 82.824 13.328 82.824 19.176L82.824 42.636C82.824 57.868 75.208 65.484 59.976 65.484L49.98 65.484Z" fill="white" fill-opacity="0.1"/>
</svg>
