<svg width="144" height="36" viewBox="0 0 144 36" fill="none" xmlns="http://www.w3.org/2000/svg">
<g clip-path="url(#clip0_999_11796)">
<path d="M43.9286 24.4699L54.0526 24.4699L54.0526 21.4204L47.5269 21.4204L47.5269 9.93433L43.9286 9.93433L43.9286 24.4699Z" fill="white"/>
<path d="M60.0507 22.4369C58.6073 22.4369 57.8551 21.1765 57.8551 19.2859C57.8551 17.3952 58.6073 16.1145 60.0507 16.1145C61.4941 16.1145 62.2666 17.3952 62.2666 19.2859C62.2666 21.1765 61.4941 22.4369 60.0507 22.4369ZM60.071 24.7952C63.4253 24.7952 65.6209 22.4166 65.6209 19.2859C65.6209 16.1552 63.4253 13.7766 60.071 13.7766C56.737 13.7766 54.5007 16.1552 54.5007 19.2859C54.5007 22.4166 56.737 24.7952 60.071 24.7952Z" fill="white"/>
<path d="M71.4272 28.068C72.9722 28.068 74.3343 27.7224 75.2491 26.9092C76.0826 26.157 76.6315 25.0186 76.6315 23.4532L76.6315 14.061L73.4601 14.061L73.4601 15.1792L73.4195 15.1792C72.8096 14.305 71.8744 13.7561 70.492 13.7561C67.9102 13.7561 66.1212 15.911 66.1212 18.9604C66.1212 22.1522 68.2965 23.9005 70.6343 23.9005C71.8948 23.9005 72.6876 23.3922 73.2975 22.701L73.3788 22.701L73.3788 23.7378C73.3788 24.9983 72.7893 25.7301 71.3865 25.7301C70.2887 25.7301 69.7399 25.2626 69.5569 24.7137L66.3448 24.7137C66.6701 26.8889 68.5607 28.068 71.4272 28.068ZM71.4069 21.4406C70.1668 21.4406 69.3536 20.4242 69.3536 18.8588C69.3536 17.2731 70.1668 16.2566 71.4069 16.2566C72.7893 16.2566 73.5211 17.4357 73.5211 18.8385C73.5211 20.3022 72.8502 21.4406 71.4069 21.4406Z" fill="white"/>
<path d="M83.1523 22.4369C81.709 22.4369 80.9568 21.1765 80.9568 19.2859C80.9568 17.3952 81.709 16.1145 83.1523 16.1145C84.5957 16.1145 85.3683 17.3952 85.3683 19.2859C85.3683 21.1765 84.5957 22.4369 83.1523 22.4369ZM83.1727 24.7952C86.527 24.7952 88.7226 22.4166 88.7226 19.2859C88.7226 16.1552 86.527 13.7766 83.1727 13.7766C79.8387 13.7766 77.6024 16.1552 77.6024 19.2859C77.6024 22.4166 79.8387 24.7952 83.1727 24.7952Z" fill="white"/>
<path d="M89.6899 24.4699L93.0036 24.4699L93.0036 14.0612L89.6899 14.0612L89.6899 24.4699ZM89.6899 12.6178L93.0036 12.6178L93.0036 9.93433L89.6899 9.93433L89.6899 12.6178Z" fill="white"/>
<path d="M94.442 27.9054L97.7557 27.9054L97.7557 23.3922L97.7964 23.3922C98.4469 24.2664 99.4024 24.795 100.744 24.795C103.468 24.795 105.278 22.6401 105.278 19.2654C105.278 16.1346 103.59 13.7561 100.825 13.7561C99.4024 13.7561 98.3859 14.3863 97.6744 15.3215L97.6134 15.3215L97.6134 14.061L94.442 14.061L94.442 27.9054ZM99.8903 22.2335C98.4672 22.2335 97.6541 21.0747 97.6541 19.3874C97.6541 17.7 98.3859 16.4193 99.8293 16.4193C101.252 16.4193 101.923 17.5984 101.923 19.3874C101.923 21.156 101.151 22.2335 99.8903 22.2335Z" fill="white"/>
<path d="M110.672 24.795C113.397 24.795 115.409 23.6159 115.409 21.339C115.409 18.6758 113.254 18.2082 111.425 17.9033C110.103 17.6594 108.924 17.5577 108.924 16.8258C108.924 16.1753 109.554 15.8704 110.368 15.8704C111.282 15.8704 111.913 16.155 112.035 17.0901L115.084 17.0901C114.921 15.0369 113.336 13.7561 110.388 13.7561C107.928 13.7561 105.895 14.8946 105.895 17.0901C105.895 19.5297 107.826 20.0176 109.636 20.3225C111.018 20.5665 112.279 20.6681 112.279 21.6033C112.279 22.2741 111.648 22.6401 110.652 22.6401C109.554 22.6401 108.863 22.1318 108.741 21.095L105.61 21.095C105.712 23.3922 107.623 24.795 110.672 24.795Z" fill="white"/>
<path d="M119.911 24.7746C121.354 24.7746 122.269 24.2054 123.021 23.1889L123.082 23.1889L123.082 24.4697L126.253 24.4697L126.253 14.061L122.94 14.061L122.94 19.8752C122.94 21.1153 122.248 21.9692 121.11 21.9692C120.053 21.9692 119.545 21.339 119.545 20.2005L119.545 14.061L116.251 14.061L116.251 20.8917C116.251 23.2093 117.512 24.7746 119.911 24.7746Z" fill="white"/>
<path d="M127.694 24.4697L131.008 24.4697L131.008 18.6352C131.008 17.3951 131.618 16.5209 132.654 16.5209C133.651 16.5209 134.118 17.1714 134.118 18.2896L134.118 24.4697L137.432 24.4697L137.432 18.6352C137.432 17.3951 138.021 16.5209 139.079 16.5209C140.075 16.5209 140.542 17.1714 140.542 18.2896L140.542 24.4697L143.856 24.4697L143.856 17.7C143.856 15.3621 142.677 13.7561 140.319 13.7561C138.977 13.7561 137.859 14.3253 137.046 15.5858L137.005 15.5858C136.476 14.4676 135.44 13.7561 134.078 13.7561C132.573 13.7561 131.577 14.4676 130.926 15.5451L130.865 15.5451L130.865 14.061L127.694 14.061L127.694 24.4697Z" fill="white"/>
<path fill-rule="evenodd" clip-rule="evenodd" d="M17.5207 34.6345C26.877 34.6345 34.4618 27.0497 34.4618 17.6933C34.4618 8.33702 26.877 0.752197 17.5207 0.752197C8.16428 0.752197 0.579468 8.33702 0.579468 17.6933C0.579468 27.0497 8.16428 34.6345 17.5207 34.6345ZM22.8057 8.64411C23.063 7.73031 22.1762 7.18995 21.3663 7.76694L10.0607 15.821C9.18238 16.4467 9.32054 17.6933 10.2682 17.6933L13.2453 17.6933L13.2453 17.6703L19.0475 17.6703L14.3198 19.3384L12.2356 26.7426C11.9784 27.6565 12.8651 28.1968 13.675 27.6198L24.9806 19.5658C25.8589 18.94 25.7207 17.6933 24.7731 17.6933L20.2584 17.6933L22.8057 8.64411Z" fill="#F15757"/>
</g>
<defs>
<clipPath id="clip0_999_11796">
<rect width="144" height="34.7294" fill="white" transform="translate(0 0.635254)"/>
</clipPath>
</defs>
</svg>
